Coordinates
version=1
nRows=22
nColumns=33
inDegrees=yes

Units are S.I. units (second, meters, Newtons, ...)
Angles are in degrees.

endheader
time	ground_thorax_rot_x	ground_thorax_rot_y	ground_thorax_rot_z	ground_thorax_tx	ground_thorax_ty	ground_thorax_tz	clav_prot_r	clav_elev_r	scapula_abduction_r	scapula_elevation_r	scapula_upward_rot_r	scapula_winging_r	shoulder_elv_r	plane_of_elev_r	axial_rot_r	elbow_flexion_r	pro_sup_r	wrist_flex_r	wrist_dev_r	clav_prot_l	clav_elev_l	scapula_abduction_l	scapula_elevation_l	scapula_upward_rot_l	scapula_winging_l	shoulder_elv_l	plane_of_elev_l	axial_rot_l	elbow_flexion_l	pro_sup_l	wrist_flex_l	wrist_dev_l	
3.0000	-27.452774	-26.048034	42.297152	-17.405984	824.765688	-44.074956	27.006268	-45.000000	39.967733	-45.000000	-45.000000	-103.218836	-2803.578771	21.985859	-150.416226	1800.561631	-186.258878	14.579150	13.110238	0.293316	32.285772	-32.423761	-45.000000	-45.000000	-3513.749805	-447.857502	132.999211	-104.458429	1790.925558	45.379482	12.416639	-18.626646	
3.0100	-27.757219	-25.880619	41.743816	-20.582946	826.216059	-43.809737	26.961506	-45.000000	39.975030	-45.000000	-45.000000	-103.358145	-2803.498071	22.014336	-150.511693	1800.553054	-186.916895	14.580791	13.188461	0.276389	32.335593	-32.485530	-45.000000	-45.000000	-3513.620144	-447.809967	133.006189	-104.560081	1790.900649	45.129274	12.465108	-18.733425	
3.0200	-28.063707	-25.704634	41.187541	-23.709147	827.674213	-43.545483	26.919059	-45.000000	39.966993	-45.000000	-45.000000	-103.502324	-2803.420367	22.049272	-150.596304	1800.542909	-187.553978	14.591302	13.256874	0.255616	32.383774	-32.554453	-45.000000	-45.000000	-3513.485302	-447.767850	133.007452	-104.658514	1790.877250	44.850380	12.513434	-18.842258	
3.0300	-28.372620	-25.521600	40.624542	-26.779037	829.141664	-43.284310	26.878913	-45.000000	39.950187	-45.000000	-45.000000	-103.649158	-2803.347426	22.089862	-150.674379	1800.527932	-188.168554	14.610156	13.318402	0.231821	32.430872	-32.626662	-45.000000	-45.000000	-3513.348987	-447.729135	133.005312	-104.754259	1790.856484	44.548488	12.559394	-18.951160	
3.0400	-28.680577	-25.329859	40.058357	-29.788029	830.620847	-43.028932	26.838926	-45.000000	39.925369	-45.000000	-45.000000	-103.797316	-2803.275037	22.133462	-150.743570	1800.510698	-188.760758	14.637324	13.371750	0.208074	32.475943	-32.703035	-45.000000	-45.000000	-3513.214044	-447.693989	133.000363	-104.843451	1790.834901	44.230074	12.602511	-19.058246	
3.0500	-28.983294	-25.135949	39.492798	-32.732889	832.114827	-42.782321	26.800218	-45.000000	39.901207	-45.000000	-45.000000	-103.945291	-2803.205885	22.177128	-150.803032	1800.490343	-189.333008	14.671173	13.421229	0.183729	32.519653	-32.775964	-45.000000	-45.000000	-3513.081030	-447.660525	132.993612	-104.929395	1790.811627	43.900298	12.642409	-19.161547	
3.0600	-29.277525	-24.938465	38.932189	-35.611819	833.626819	-42.547431	26.760650	-45.000000	39.876753	-45.000000	-45.000000	-104.091835	-2803.137186	22.217790	-150.851002	1800.468590	-189.888462	14.711595	13.465221	0.161370	32.561020	-32.846320	-45.000000	-45.000000	-3512.953015	-447.628451	132.987189	-105.010690	1790.786496	43.563396	12.678792	-19.259212	
3.0700	-29.560398	-24.741479	38.378774	-38.424921	835.159997	-42.326745	26.720566	-45.000000	39.858760	-45.000000	-45.000000	-104.234738	-2803.070067	22.252619	-150.888739	1800.445809	-190.431179	14.757310	13.506437	0.140864	32.600886	-32.909270	-45.000000	-45.000000	-3512.831273	-447.596581	132.982519	-105.090217	1790.758692	43.222687	12.711978	-19.349458	
3.0800	-29.831150	-24.541881	37.834337	-41.173447	836.717009	-42.122206	26.678751	-45.000000	39.843105	-45.000000	-45.000000	-104.374927	-2803.002019	22.281165	-150.914962	1800.423229	-190.963503	14.809621	13.542407	0.122345	32.640182	-32.968127	-45.000000	-45.000000	-3512.716082	-447.565970	132.979032	-105.165522	1790.729100	42.881321	12.742693	-19.433068	
3.0900	-30.090935	-24.340305	37.298305	-43.859400	838.299992	-41.935135	26.636496	-45.000000	39.829162	-45.000000	-45.000000	-104.511890	-2802.934781	22.305156	-150.934749	1800.400432	-191.487666	14.868968	13.574133	0.103805	32.679543	-33.023092	-45.000000	-45.000000	-3512.604424	-447.535726	132.975712	-105.236398	1790.698927	42.542528	12.771867	-19.512259	
3.1000	-30.339647	-24.134447	36.770726	-46.484446	839.910433	-41.766395	26.593530	-45.000000	39.814190	-45.000000	-45.000000	-104.646978	-2802.867005	22.325206	-150.948733	1800.377126	-192.004906	14.935985	13.600121	0.086467	32.718245	-33.075987	-45.000000	-45.000000	-3512.497791	-447.505173	132.972287	-105.298835	1790.668769	42.210222	12.799581	-19.588266	
3.1100	-30.580707	-23.923657	36.246292	-49.049564	841.549423	-41.616439	26.550286	-45.000000	39.797304	-45.000000	-45.000000	-104.779680	-2802.800982	22.343991	-150.961932	1800.351221	-192.516347	15.010807	13.621264	0.068731	32.757001	-33.128570	-45.000000	-45.000000	-3512.393200	-447.476507	132.967183	-105.354144	1790.639757	41.889103	12.825821	-19.664522	
3.1200	-30.812865	-23.709742	35.727811	-51.554360	843.217453	-41.485464	26.506043	-45.000000	39.781496	-45.000000	-45.000000	-104.911548	-2802.737388	22.360073	-150.975935	1800.322771	-193.022958	15.090388	13.639105	0.051993	32.794943	-33.177917	-45.000000	-45.000000	-3512.293345	-447.447687	132.960892	-105.402150	1790.612754	41.584517	12.849237	-19.741661	
3.1300	-31.038787	-23.491528	35.214240	-53.997114	844.914214	-41.373441	26.461626	-45.000000	39.763429	-45.000000	-45.000000	-105.041701	-2802.677672	22.376011	-150.995155	1800.291775	-193.525526	15.172816	13.653533	0.034717	32.832720	-33.226640	-45.000000	-45.000000	-3512.193827	-447.420684	132.951977	-105.445203	1790.589219	41.302377	12.869484	-19.823780	
3.1400	-31.258094	-23.269959	34.706789	-56.375120	846.638166	-41.280181	26.416712	-45.000000	39.744480	-45.000000	-45.000000	-105.171190	-2802.622651	22.392619	-151.018188	1800.257569	-194.022846	15.254852	13.665161	0.018649	32.869339	-33.273820	-45.000000	-45.000000	-3512.096174	-447.393914	132.941945	-105.480829	1790.569250	41.048943	12.885778	-19.911679	
3.1500	-31.470909	-23.042767	34.206923	-58.685500	848.386204	-41.205389	26.370727	-45.000000	39.722887	-45.000000	-45.000000	-105.299251	-2802.571302	22.409587	-151.047621	1800.220929	-194.512081	15.334095	13.673796	0.002633	32.905489	-33.321230	-45.000000	-45.000000	-3511.999947	-447.369637	132.930249	-105.512103	1790.553879	40.829997	12.897382	-20.007216	
3.1600	-31.675121	-22.813084	33.719144	-60.925687	850.153249	-41.148802	26.323854	-45.000000	39.701659	-45.000000	-45.000000	-105.425649	-2802.523234	22.425656	-151.082363	1800.182490	-194.987796	15.407771	13.680876	-0.012804	32.940601	-33.365685	-45.000000	-45.000000	-3511.907074	-447.345882	132.918880	-105.541794	1790.542900	40.650291	12.903391	-20.109279	
3.1700	-31.872088	-22.580210	33.242962	-63.093771	851.932077	-41.110292	26.276689	-45.000000	39.678594	-45.000000	-45.000000	-105.549751	-2802.479506	22.441894	-151.119646	1800.141831	-195.441321	15.476857	13.686123	-0.028452	32.974781	-33.408820	-45.000000	-45.000000	-3511.814625	-447.324015	132.906679	-105.572137	1790.536999	40.512650	12.904244	-20.219310	
3.1800	-32.061386	-22.346983	32.778003	-65.188705	853.713497	-41.089928	26.228231	-45.000000	39.654676	-45.000000	-45.000000	-105.672050	-2802.439377	22.457931	-151.155960	1800.096692	-195.861035	15.543167	13.690610	-0.043802	33.007628	-33.449243	-45.000000	-45.000000	-3511.724589	-447.303313	132.895374	-105.604168	1790.536068	40.418458	12.899470	-20.335766	
3.1900	-32.241776	-22.112763	32.325806	-67.210109	855.486646	-41.087953	26.178235	-45.000000	39.632032	-45.000000	-45.000000	-105.792076	-2802.401064	22.471407	-151.190274	1800.047283	-196.234021	15.608831	13.695219	-0.059557	33.039530	-33.484980	-45.000000	-45.000000	-3511.638792	-447.286368	132.884585	-105.644702	1790.539007	40.367595	12.889080	-20.457401	
3.2000	-32.415222	-21.878809	31.886816	-69.157852	857.239320	-41.104649	26.127506	-45.000000	39.609222	-45.000000	-45.000000	-105.909561	-2802.364797	22.483271	-151.216319	1799.994607	-196.546528	15.677026	13.699251	-0.075433	33.069988	-33.515679	-45.000000	-45.000000	-3511.555572	-447.272220	132.875624	-105.691710	1790.545289	40.358255	12.873552	-20.584032	
3.2100	-32.581664	-21.644641	31.460043	-71.031606	858.958296	-41.140157	26.076284	-45.000000	39.586429	-45.000000	-45.000000	-106.025219	-2802.330143	22.493846	-151.228942	1799.937779	-196.784824	15.751260	13.702539	-0.091831	33.098049	-33.540475	-45.000000	-45.000000	-3511.475922	-447.261105	132.867082	-105.742240	1790.552661	40.388877	12.853667	-20.715117	
